<svg xmlns="http://www.w3.org/2000/svg" width="17" height="23" viewBox="0 0 17 23"><defs><style>.a{fill:#396ff7;}.b{fill:#1a49d1;}.c{fill:#bcccff;}</style></defs><g transform="translate(0)"><path class="a" d="M2963.25-6114.726l4.274-2.255v-10.764L2971.8-6130v16.212l-4.274,2.255v.012l-4.274,2.255Z" transform="translate(-2954.798 6132.266)"/><path class="b" d="M2967.429-6116.922v-.013l-4.18-2.206V-6130l4.274,2.255v5.414l4.18,2.206v5.458Z" transform="translate(-2963.25 6137.667)"/><path class="a" d="M0-20.879l4.274-2.255v5.459L0-15.42Z" transform="translate(4.274 30.801)"/><path class="c" d="M0,2.266,4.274,0,8.547,2.266,4.274,4.532Z" transform="translate(0 5.4)"/><path class="b" d="M2963.25-6119.141V-6130l4.274,2.255v10.86Z" transform="translate(-2954.798 6132.266)"/><path class="c" d="M0,2.266,4.274,0,8.547,2.266,4.274,4.532Z" transform="translate(8.453)"/><path class="c" d="M.085,2.345,4.316,0,8.547,2.345,4.316,4.532Z" transform="translate(4.179 13.019)"/></g></svg>