<svg xmlns="http://www.w3.org/2000/svg" width="17" height="17" viewBox="0 0 17 17"><defs><style>.a{fill:#396ff7;}.b{fill:#1a49d1;}</style></defs><g transform="translate(-127 -77.5)"><path class="a" d="M20.1,13a2.187,2.187,0,0,1,1.4-2.04A8.668,8.668,0,0,0,20.451,8.43a2.217,2.217,0,0,1-.89.19,2.182,2.182,0,0,1-2-3.072A8.646,8.646,0,0,0,15.041,4.5a2.186,2.186,0,0,1-4.082,0A8.672,8.672,0,0,0,8.431,5.549a2.182,2.182,0,0,1-2,3.072,2.145,2.145,0,0,1-.89-.19A8.859,8.859,0,0,0,4.5,10.962a2.186,2.186,0,0,1,0,4.081A8.668,8.668,0,0,0,5.554,17.57a2.183,2.183,0,0,1,2.882,2.881A8.723,8.723,0,0,0,10.964,21.5a2.182,2.182,0,0,1,4.073,0,8.672,8.672,0,0,0,2.528-1.049,2.186,2.186,0,0,1,2.882-2.881A8.718,8.718,0,0,0,21.5,15.043,2.2,2.2,0,0,1,20.1,13ZM13.04,16.534a3.541,3.541,0,1,1,3.542-3.541A3.54,3.54,0,0,1,13.04,16.534Z" transform="translate(122.5 73)"/><path class="b" d="M5.607,11.214a5.607,5.607,0,1,1,5.607-5.607A5.614,5.614,0,0,1,5.607,11.214Zm0-9.043A3.436,3.436,0,1,0,9.043,5.606,3.44,3.44,0,0,0,5.607,2.171Z" transform="translate(129.893 80.394)"/></g></svg>