<svg xmlns="http://www.w3.org/2000/svg" width="17.006" height="17" viewBox="0 0 17.006 17"><defs><style>.a{fill:#396ff7;}.b{fill:#1a49d1;}</style></defs><g transform="translate(-3.374 -3.375)"><path class="a" d="M13.391,7.293a.16.16,0,0,0-.2,0l-6.375,5.1a.172.172,0,0,0-.061.127v9.4A.082.082,0,0,0,6.832,22h4.413a.082.082,0,0,0,.082-.082V16.2a.082.082,0,0,1,.082-.082h3.76a.082.082,0,0,1,.082.082v5.721a.082.082,0,0,0,.082.082h4.413a.082.082,0,0,0,.082-.082v-9.4a.165.165,0,0,0-.061-.127Z" transform="translate(-1.414 -1.625)"/><path class="b" d="M20.158,9.758,12.434,3.571a.9.9,0,0,0-1.12,0L7.951,6.305V4.581A.082.082,0,0,0,7.87,4.5H5.418a.082.082,0,0,0-.082.082V8.348L3.591,9.783a.572.572,0,0,0-.049.854.569.569,0,0,0,.4.168.576.576,0,0,0,.36-.127L11.821,4.63a.073.073,0,0,1,.053-.016.1.1,0,0,1,.053.016l7.515,6.024a.576.576,0,0,0,.36.127.58.58,0,0,0,.576-.6A.581.581,0,0,0,20.158,9.758Z"/></g></svg>