<svg xmlns="http://www.w3.org/2000/svg" width="22.5" height="29.979" viewBox="0 0 22.5 29.979"><defs><style>.a{fill:#396ff7;}.b{fill:#1a49d1;}.c{fill:#bcccff;}</style></defs><path class="a" d="M0-20.195l5.656-2.94v7.116L0-13.079Z" transform="translate(16.843 40.104)"/><path class="b" d="M5.656-20.195,0-23.135v7.116l5.656,2.94Z" transform="translate(11.187 40.104)"/><path class="c" d="M0,2.788,5.576,0l5.576,2.788L5.576,5.576Z" transform="translate(11.349 13.252)"/><path class="a" d="M0-20.195l5.656-2.94v7.116L0-13.079Z" transform="translate(5.657 40.167)"/><path class="b" d="M5.656-20.195,0-23.135v7.116l5.656,2.94Z" transform="translate(0 40.167)"/><path class="c" d="M0,2.954,5.656,0l5.656,2.954L5.656,5.908Z" transform="translate(0 14.078)"/><path class="a" d="M0-20.195l5.656-2.94v7.116L0-13.079Z" transform="translate(5.657 33.128)"/><path class="b" d="M5.656-20.195,0-23.135v7.116l5.656,2.94Z" transform="translate(0 33.128)"/><path class="c" d="M0,2.954,5.656,0l5.656,2.954L5.656,5.908Z" transform="translate(0 7.039)"/><path class="a" d="M0-20.195l5.656-2.94v7.116L0-13.079Z" transform="translate(16.843 33.128)"/><path class="b" d="M5.656-20.195,0-23.135v7.116l5.656,2.94Z" transform="translate(11.187 33.128)"/><path class="c" d="M0,2.954,5.656,0l5.656,2.954L5.656,5.908Z" transform="translate(11.187 7.039)"/><path class="a" d="M0-20.195l5.656-2.94v7.116L0-13.079Z" transform="translate(16.843 26.089)"/><path class="b" d="M5.656-20.195,0-23.135v7.116l5.656,2.94Z" transform="translate(11.187 26.089)"/><path class="c" d="M0,2.954,5.656,0l5.656,2.954L5.656,5.908Z" transform="translate(11.187)"/><path class="a" d="M0-20.195l5.656-2.94v7.116L0-13.079Z" transform="translate(11.187 43.058)"/><path class="b" d="M5.656-20.195,0-23.135v7.116l5.656,2.94Z" transform="translate(5.531 43.058)"/><path class="c" d="M0,2.954,5.656,0l5.656,2.954L5.656,5.908Z" transform="translate(5.531 16.969)"/></svg>