<svg xmlns="http://www.w3.org/2000/svg" width="1238.997" height="128" viewBox="0 0 1238.997 128"><defs><style>.a{fill:#005aa0;}</style></defs><g transform="translate(-67.124 -429.069)"><path class="a" d="M496.081,23.338V1.069H506.64v55.02H496.081V33.9H477.225V56.089H466.673V1.069h10.552V23.338h18.856Z" transform="translate(-66.353 428)"/><path class="a" d="M573.408,1.069V11.622H549.269V23.338h20.954V33.9H549.269V45.536h24.139V56.089H543.917a1.557,1.557,0,0,1-1.245-.544l-3.413-3.412a1.555,1.555,0,0,1-.543-1.244V6.264a1.552,1.552,0,0,1,.543-1.239l3.413-3.413a1.817,1.817,0,0,1,1.245-.543h29.491Z" transform="translate(-86.935 428)"/><path class="a" d="M607.646,56.089a1.553,1.553,0,0,1-1.245-.544l-3.413-3.412a1.538,1.538,0,0,1-.544-1.244V1.069H613V45.536h22.97V56.089H607.646Z" transform="translate(-105.146 428)"/><path class="a" d="M709.244,1.069v55.02H698.692V25.669l-8.612,18a1.787,1.787,0,0,1-1.555,1.011h-6.206a1.813,1.813,0,0,1-1.63-1.011l-8.613-18v30.42H661.524V1.069h10.552l13.346,27.936L698.692,1.069Z" transform="translate(-122.068 428)"/><path class="a" d="M772.8,23.338V1.069h10.559v55.02H772.8V33.9H753.947V56.089H743.394V1.069h10.553V23.338H772.8Z" transform="translate(-145.449 428)"/><path class="a" d="M845.137,3.7l5.51,5.435a8.806,8.806,0,0,1,2.56,6.2V41.808a8.813,8.813,0,0,1-2.56,6.212l-5.51,5.51a8.81,8.81,0,0,1-6.212,2.56H826.589a8.675,8.675,0,0,1-6.286-2.56l-5.435-5.51a8.814,8.814,0,0,1-2.559-6.212V15.344a8.81,8.81,0,0,1,2.559-6.2L820.3,3.7a8.874,8.874,0,0,1,6.286-2.635h12.335A9.026,9.026,0,0,1,845.137,3.7Zm-2.484,36.707V16.823a1.831,1.831,0,0,0-.543-1.244l-3.336-3.413a2.216,2.216,0,0,0-1.321-.543h-9.466a2.015,2.015,0,0,0-1.245.543l-3.336,3.413a1.554,1.554,0,0,0-.544,1.244V40.412a1.67,1.67,0,0,0,.544,1.244l3.336,3.337a1.676,1.676,0,0,0,1.245.543h9.466a1.839,1.839,0,0,0,1.321-.543l3.336-3.337A2.009,2.009,0,0,0,842.652,40.412Z" transform="translate(-165.149 428)"/><path class="a" d="M887.391,56.089a1.558,1.558,0,0,1-1.245-.544l-3.412-3.412a1.533,1.533,0,0,1-.543-1.244V1.069h10.554V45.536h22.969V56.089H887.391Z" transform="translate(-185.1 428)"/><path class="a" d="M927.767,11.622V1.069H967.5V11.622h-14.59V56.089H942.358V11.622H927.767Z" transform="translate(-198.147 428)"/><path class="a" d="M1026.817,1.613l3.414,3.413a1.836,1.836,0,0,1,.543,1.239V8.98l-23.128,36.556h22.819V56.09H998.957a1.558,1.558,0,0,1-1.246-.544L994.3,52.134a1.839,1.839,0,0,1-.543-1.244V47.711l22.818-36.088H993.446V1.07h32.125a1.81,1.81,0,0,1,1.245.543Z" transform="translate(-216.911 428)"/><path class="a" d="M68.749,52.706V1.069H93.377V128.632H68.749V77.174h-44v51.458H.124V1.069H24.749V52.706h44Z" transform="translate(67 428)"/><path class="a" d="M235.965,1.151a4.114,4.114,0,0,1,2.905,1.2l7.964,7.913a4.067,4.067,0,0,1,1.2,2.883v6.244l-53.986,84.785h53.986v24.481H173.8a4.119,4.119,0,0,1-2.9-1.194l-7.964-7.912a4.076,4.076,0,0,1-1.2-2.886v-7.524l53.173-83.5H162.267V1.152h73.7Z" transform="translate(21.568 427.977)"/><path class="a" d="M345.849,128.632H321.224V1.069h24.625Z" transform="translate(-24.761 428)"/><path class="a" d="M27.048-20.465A21.037,21.037,0,0,1,18.443-22.2a19.649,19.649,0,0,1-6.831-5.02A23.28,23.28,0,0,1,7.083-35.3,33.674,33.674,0,0,1,5.46-46.129,32.383,32.383,0,0,1,7.121-56.847a23.883,23.883,0,0,1,4.6-8.077,20.041,20.041,0,0,1,6.944-5.1,21.36,21.36,0,0,1,8.756-1.774,16.541,16.541,0,0,1,7.963,1.849,20.8,20.8,0,0,1,5.623,4.265l-3.4,4.076A16.116,16.116,0,0,0,33.162-65,12.183,12.183,0,0,0,27.5-66.283a14.464,14.464,0,0,0-6.416,1.4,13.9,13.9,0,0,0-4.906,4,18.731,18.731,0,0,0-3.133,6.3,29.231,29.231,0,0,0-1.094,8.3,29.925,29.925,0,0,0,1.094,8.416A20.037,20.037,0,0,0,16.1-31.485,13.537,13.537,0,0,0,20.9-27.409a13.912,13.912,0,0,0,6.378,1.434,13.111,13.111,0,0,0,6.341-1.472,19.747,19.747,0,0,0,5.133-4.114l3.472,3.925a22.011,22.011,0,0,1-6.642,5.284A18.517,18.517,0,0,1,27.048-20.465Zm38.647,0a17.96,17.96,0,0,1-6.907-1.321A16.371,16.371,0,0,1,53.2-25.56a17.475,17.475,0,0,1-3.736-6,22.463,22.463,0,0,1-1.359-8.077,22.218,22.218,0,0,1,1.4-8.114,18.989,18.989,0,0,1,3.7-6.076,16.047,16.047,0,0,1,5.246-3.812,14.777,14.777,0,0,1,6.114-1.321,15.361,15.361,0,0,1,6.227,1.208,12.144,12.144,0,0,1,4.6,3.472,15.932,15.932,0,0,1,2.831,5.435,23.945,23.945,0,0,1,.981,7.1q0,.981-.038,1.925A9.3,9.3,0,0,1,78.98-38.2H54.222a14.326,14.326,0,0,0,3.661,9.322,11.315,11.315,0,0,0,8.567,3.435,14.424,14.424,0,0,0,4.869-.793,21.538,21.538,0,0,0,4.265-2.076l2.189,4.076A31.249,31.249,0,0,1,72.413-21.6,18.619,18.619,0,0,1,65.695-20.465ZM54.146-42.657H73.772q0-5.586-2.378-8.492a8.147,8.147,0,0,0-6.68-2.906,9.444,9.444,0,0,0-3.736.755,9.836,9.836,0,0,0-3.208,2.227,12.207,12.207,0,0,0-2.378,3.585A16.186,16.186,0,0,0,54.146-42.657ZM88.264-21.371V-58.055H93.4l.528,5.284h.226A29.885,29.885,0,0,1,99.7-57.187a12.706,12.706,0,0,1,6.756-1.774q5.812,0,8.492,3.623t2.68,10.718v23.249h-6.19V-43.789q0-5.208-1.661-7.511t-5.284-2.3a9.018,9.018,0,0,0-5.057,1.434,32.809,32.809,0,0,0-4.982,4.227v26.57Zm52.838.906a11.971,11.971,0,0,1-4.944-.906,8.5,8.5,0,0,1-3.246-2.491,9.706,9.706,0,0,1-1.774-3.85,21.932,21.932,0,0,1-.528-4.982V-53h-5.435v-4.68l5.737-.377.755-10.266h5.208v10.266h9.888V-53h-9.888v20.38a9.346,9.346,0,0,0,1.246,5.246q1.245,1.849,4.416,1.849a8.228,8.228,0,0,0,2.113-.3,16.107,16.107,0,0,0,2.038-.679l1.208,4.68a32.071,32.071,0,0,1-3.284.944A15.359,15.359,0,0,1,141.1-20.465Zm13.964-.906V-58.055H160.2l.528,6.642h.227a16.95,16.95,0,0,1,4.567-5.51,9.457,9.457,0,0,1,5.85-2.038,9.751,9.751,0,0,1,3.925.755l-1.208,5.435a13.965,13.965,0,0,0-1.661-.453,9.855,9.855,0,0,0-1.887-.151,8.22,8.22,0,0,0-4.869,1.887q-2.529,1.887-4.416,6.567v23.551Zm40.308.906a17.96,17.96,0,0,1-6.907-1.321,16.372,16.372,0,0,1-5.586-3.774,17.479,17.479,0,0,1-3.736-6,22.464,22.464,0,0,1-1.359-8.077,22.218,22.218,0,0,1,1.4-8.114,18.988,18.988,0,0,1,3.7-6.076,16.048,16.048,0,0,1,5.246-3.812,14.778,14.778,0,0,1,6.114-1.321,15.36,15.36,0,0,1,6.227,1.208,12.144,12.144,0,0,1,4.6,3.472,15.933,15.933,0,0,1,2.83,5.435,23.945,23.945,0,0,1,.981,7.1q0,.981-.038,1.925a9.3,9.3,0,0,1-.189,1.623H183.9a14.327,14.327,0,0,0,3.661,9.322,11.315,11.315,0,0,0,8.567,3.435A14.424,14.424,0,0,0,201-26.239a21.539,21.539,0,0,0,4.265-2.076l2.189,4.076a31.243,31.243,0,0,1-5.359,2.642A18.619,18.619,0,0,1,195.374-20.465ZM183.825-42.657H203.45q0-5.586-2.378-8.492a8.147,8.147,0,0,0-6.68-2.906,9.444,9.444,0,0,0-3.736.755,9.836,9.836,0,0,0-3.208,2.227,12.209,12.209,0,0,0-2.378,3.585A16.191,16.191,0,0,0,183.825-42.657ZM234.1-21.371V-53h-4.982v-4.68l4.982-.377v-5.812q0-5.661,2.6-8.907t8.114-3.246a15.285,15.285,0,0,1,3.283.34,17.019,17.019,0,0,1,2.831.868l-1.359,4.756a10.129,10.129,0,0,0-4.152-.906q-5.133,0-5.133,7.1v5.812h7.775V-53h-7.775v31.627Zm34.5.906a16.508,16.508,0,0,1-6.454-1.283,15.9,15.9,0,0,1-5.4-3.736A18.188,18.188,0,0,1,253-31.523a22.22,22.22,0,0,1-1.4-8.114,22.445,22.445,0,0,1,1.4-8.19,18.628,18.628,0,0,1,3.736-6.076,15.656,15.656,0,0,1,5.4-3.774,16.508,16.508,0,0,1,6.454-1.283,16.507,16.507,0,0,1,6.454,1.283,15.656,15.656,0,0,1,5.4,3.774,18.631,18.631,0,0,1,3.736,6.076,22.443,22.443,0,0,1,1.4,8.19,22.218,22.218,0,0,1-1.4,8.114,18.19,18.19,0,0,1-3.736,6.039,15.894,15.894,0,0,1-5.4,3.736A16.507,16.507,0,0,1,268.591-20.465Zm0-5.133a9.2,9.2,0,0,0,4.3-1.019,9.888,9.888,0,0,0,3.359-2.868A13.636,13.636,0,0,0,278.4-33.9a20.305,20.305,0,0,0,.755-5.737,20.7,20.7,0,0,0-.755-5.774,14.051,14.051,0,0,0-2.151-4.491,9.733,9.733,0,0,0-3.359-2.906,9.2,9.2,0,0,0-4.3-1.019,9.2,9.2,0,0,0-4.3,1.019A9.731,9.731,0,0,0,260.93-49.9a14.05,14.05,0,0,0-2.151,4.491,20.706,20.706,0,0,0-.755,5.774,20.307,20.307,0,0,0,.755,5.737,13.635,13.635,0,0,0,2.151,4.416,9.886,9.886,0,0,0,3.359,2.868A9.2,9.2,0,0,0,268.591-25.6Zm26.645,4.227V-58.055h5.133l.528,6.642h.226a16.95,16.95,0,0,1,4.567-5.51,9.457,9.457,0,0,1,5.85-2.038,9.752,9.752,0,0,1,3.925.755l-1.208,5.435a13.959,13.959,0,0,0-1.661-.453,9.855,9.855,0,0,0-1.887-.151,8.22,8.22,0,0,0-4.869,1.887q-2.529,1.887-4.416,6.567v23.551Zm56.989,0V-70.887h6.265v49.516Zm19.248,0V-58.055h5.133l.528,5.284h.226a29.89,29.89,0,0,1,5.548-4.416,12.706,12.706,0,0,1,6.756-1.774q5.812,0,8.492,3.623t2.68,10.718v23.249h-6.19V-43.789q0-5.208-1.661-7.511T387.7-53.6a9.017,9.017,0,0,0-5.057,1.434,32.8,32.8,0,0,0-4.982,4.227v26.57Zm42.346,0V-53h-4.982v-4.68l4.982-.377v-5.812q0-5.661,2.6-8.907t8.114-3.246a15.287,15.287,0,0,1,3.283.34,17.017,17.017,0,0,1,2.831.868l-1.359,4.756a10.128,10.128,0,0,0-4.151-.906q-5.133,0-5.133,7.1v5.812h7.775V-53h-7.775v31.627Zm35.1.906a17.959,17.959,0,0,1-6.907-1.321,16.368,16.368,0,0,1-5.586-3.774,17.474,17.474,0,0,1-3.736-6,22.463,22.463,0,0,1-1.359-8.077,22.218,22.218,0,0,1,1.4-8.114,18.99,18.99,0,0,1,3.7-6.076,16.045,16.045,0,0,1,5.246-3.812,14.776,14.776,0,0,1,6.114-1.321,15.361,15.361,0,0,1,6.227,1.208,12.146,12.146,0,0,1,4.6,3.472,15.93,15.93,0,0,1,2.83,5.435,23.939,23.939,0,0,1,.981,7.1q0,.981-.038,1.925A9.307,9.307,0,0,1,462.2-38.2H437.446a14.327,14.327,0,0,0,3.661,9.322,11.315,11.315,0,0,0,8.567,3.435,14.423,14.423,0,0,0,4.868-.793,21.54,21.54,0,0,0,4.265-2.076L461-24.239a31.249,31.249,0,0,1-5.359,2.642A18.62,18.62,0,0,1,448.919-20.465ZM437.37-42.657H457q0-5.586-2.378-8.492a8.147,8.147,0,0,0-6.68-2.906,9.444,9.444,0,0,0-3.736.755,9.834,9.834,0,0,0-3.208,2.227,12.206,12.206,0,0,0-2.378,3.585A16.185,16.185,0,0,0,437.37-42.657Zm48.611,22.192a17.935,17.935,0,0,1-6.793-1.283,15.262,15.262,0,0,1-5.472-3.736,17.571,17.571,0,0,1-3.623-6.039,23.355,23.355,0,0,1-1.321-8.114,21.914,21.914,0,0,1,1.434-8.19,18.449,18.449,0,0,1,3.849-6.076,16.056,16.056,0,0,1,5.624-3.774,18.022,18.022,0,0,1,6.755-1.283,13.717,13.717,0,0,1,6.19,1.283,20.894,20.894,0,0,1,4.529,3.019l-3.17,4.076a15.547,15.547,0,0,0-3.359-2.34,8.587,8.587,0,0,0-3.963-.906,10.461,10.461,0,0,0-4.6,1.019,10.356,10.356,0,0,0-3.623,2.906,14.406,14.406,0,0,0-2.378,4.491,18.182,18.182,0,0,0-.868,5.774,18.576,18.576,0,0,0,.831,5.737,13.865,13.865,0,0,0,2.3,4.416,10.177,10.177,0,0,0,3.585,2.868,10.462,10.462,0,0,0,4.6,1.019,10.251,10.251,0,0,0,4.718-1.095,19.073,19.073,0,0,0,3.887-2.6l2.717,4.152a19.648,19.648,0,0,1-5.51,3.434A16.467,16.467,0,0,1,485.981-20.465Zm30.722,0a11.972,11.972,0,0,1-4.944-.906,8.505,8.505,0,0,1-3.246-2.491,9.706,9.706,0,0,1-1.774-3.85,21.939,21.939,0,0,1-.528-4.982V-53h-5.435v-4.68l5.737-.377.755-10.266h5.208v10.266h9.888V-53h-9.888v20.38a9.346,9.346,0,0,0,1.245,5.246q1.245,1.849,4.416,1.849a8.229,8.229,0,0,0,2.113-.3,16.127,16.127,0,0,0,2.038-.679l1.208,4.68a32.081,32.081,0,0,1-3.283.944A15.359,15.359,0,0,1,516.7-20.465Zm13.964-.906V-58.055h6.189v36.684Zm3.17-44.233a4.377,4.377,0,0,1-3.057-1.132,3.707,3.707,0,0,1-1.246-2.868,3.677,3.677,0,0,1,1.246-2.906,4.465,4.465,0,0,1,3.057-1.095,4.467,4.467,0,0,1,3.057,1.095A3.678,3.678,0,0,1,538.14-69.6a3.708,3.708,0,0,1-1.246,2.868A4.379,4.379,0,0,1,533.837-65.6ZM563.5-20.465a16.509,16.509,0,0,1-6.454-1.283,15.9,15.9,0,0,1-5.4-3.736,18.188,18.188,0,0,1-3.736-6.039,22.221,22.221,0,0,1-1.4-8.114,22.446,22.446,0,0,1,1.4-8.19,18.629,18.629,0,0,1,3.736-6.076,15.657,15.657,0,0,1,5.4-3.774,16.509,16.509,0,0,1,6.454-1.283,16.508,16.508,0,0,1,6.454,1.283,15.658,15.658,0,0,1,5.4,3.774,18.628,18.628,0,0,1,3.736,6.076,22.442,22.442,0,0,1,1.4,8.19,22.217,22.217,0,0,1-1.4,8.114,18.187,18.187,0,0,1-3.736,6.039,15.9,15.9,0,0,1-5.4,3.736A16.509,16.509,0,0,1,563.5-20.465Zm0-5.133a9.2,9.2,0,0,0,4.3-1.019,9.885,9.885,0,0,0,3.359-2.868,13.629,13.629,0,0,0,2.151-4.416,20.3,20.3,0,0,0,.755-5.737,20.7,20.7,0,0,0-.755-5.774,14.044,14.044,0,0,0-2.151-4.491,9.73,9.73,0,0,0-3.359-2.906,9.2,9.2,0,0,0-4.3-1.019,9.2,9.2,0,0,0-4.3,1.019A9.731,9.731,0,0,0,555.84-49.9a14.047,14.047,0,0,0-2.151,4.491,20.7,20.7,0,0,0-.755,5.774,20.305,20.305,0,0,0,.755,5.737,13.632,13.632,0,0,0,2.151,4.416,9.887,9.887,0,0,0,3.359,2.868A9.2,9.2,0,0,0,563.5-25.6Zm26.645,4.227V-58.055h5.133l.529,5.284h.226a29.884,29.884,0,0,1,5.548-4.416,12.705,12.705,0,0,1,6.755-1.774q5.812,0,8.492,3.623t2.68,10.718v23.249h-6.19V-43.789q0-5.208-1.661-7.511t-5.284-2.3a9.019,9.019,0,0,0-5.057,1.434,32.8,32.8,0,0,0-4.982,4.227v26.57Zm56.989,0V-70.887H662.61a32,32,0,0,1,6.982.717,14.832,14.832,0,0,1,5.51,2.378,11.294,11.294,0,0,1,3.585,4.3A14.781,14.781,0,0,1,679.971-57q0,5.812-3.019,9.284a15.417,15.417,0,0,1-8.152,4.755L681.4-21.371h-7.1L662.383-42.279H653.4v20.909ZM653.4-47.412h8.3q5.812,0,8.907-2.378T673.705-57q0-4.906-3.095-6.869T661.7-65.83h-8.3Zm50.2,26.947a17.961,17.961,0,0,1-6.907-1.321A16.373,16.373,0,0,1,691.1-25.56a17.479,17.479,0,0,1-3.736-6,22.461,22.461,0,0,1-1.359-8.077,22.223,22.223,0,0,1,1.4-8.114,19,19,0,0,1,3.7-6.076,16.05,16.05,0,0,1,5.246-3.812,14.777,14.777,0,0,1,6.114-1.321,15.36,15.36,0,0,1,6.227,1.208,12.147,12.147,0,0,1,4.6,3.472,15.937,15.937,0,0,1,2.83,5.435,23.939,23.939,0,0,1,.981,7.1q0,.981-.038,1.925a9.337,9.337,0,0,1-.189,1.623H692.123a14.327,14.327,0,0,0,3.661,9.322,11.316,11.316,0,0,0,8.568,3.435,14.424,14.424,0,0,0,4.869-.793,21.542,21.542,0,0,0,4.265-2.076l2.189,4.076a31.248,31.248,0,0,1-5.359,2.642A18.618,18.618,0,0,1,703.6-20.465ZM692.048-42.657h19.625q0-5.586-2.378-8.492a8.147,8.147,0,0,0-6.68-2.906,9.445,9.445,0,0,0-3.736.755,9.838,9.838,0,0,0-3.208,2.227,12.212,12.212,0,0,0-2.378,3.585A16.188,16.188,0,0,0,692.048-42.657Zm43.7,22.192a19.753,19.753,0,0,1-7.473-1.434,23.324,23.324,0,0,1-6.189-3.623l3.095-4.152a24.823,24.823,0,0,0,4.944,3.17,13.429,13.429,0,0,0,5.85,1.208,7.8,7.8,0,0,0,5.435-1.661,5.316,5.316,0,0,0,1.811-4.076,4.175,4.175,0,0,0-.754-2.491,7.517,7.517,0,0,0-1.925-1.849,14.1,14.1,0,0,0-2.679-1.4l-3.019-1.208q-1.962-.679-3.925-1.547a15.663,15.663,0,0,1-3.51-2.113,10.684,10.684,0,0,1-2.528-2.906,7.731,7.731,0,0,1-.981-4,9.892,9.892,0,0,1,.868-4.114,9.475,9.475,0,0,1,2.491-3.321,11.8,11.8,0,0,1,3.963-2.189,16.421,16.421,0,0,1,5.284-.793,16.46,16.46,0,0,1,6.378,1.208,19.839,19.839,0,0,1,5.019,2.944l-2.943,3.925a19.715,19.715,0,0,0-3.926-2.34,10.842,10.842,0,0,0-4.453-.906q-3.472,0-5.095,1.585a5.014,5.014,0,0,0-1.623,3.7,3.71,3.71,0,0,0,.679,2.227,6.438,6.438,0,0,0,1.811,1.661,14.779,14.779,0,0,0,2.6,1.283q1.472.566,3.057,1.17,1.962.755,3.963,1.585a15.192,15.192,0,0,1,3.586,2.076,10.207,10.207,0,0,1,2.6,3.057,8.8,8.8,0,0,1,1.019,4.378,10.33,10.33,0,0,1-.868,4.227,10.065,10.065,0,0,1-2.567,3.472,12.268,12.268,0,0,1-4.227,2.378A17.741,17.741,0,0,1,735.752-20.465Zm36.911,0a17.96,17.96,0,0,1-6.907-1.321,16.373,16.373,0,0,1-5.586-3.774,17.481,17.481,0,0,1-3.737-6,22.462,22.462,0,0,1-1.359-8.077,22.219,22.219,0,0,1,1.4-8.114,18.989,18.989,0,0,1,3.7-6.076,16.051,16.051,0,0,1,5.246-3.812,14.777,14.777,0,0,1,6.114-1.321,15.361,15.361,0,0,1,6.227,1.208,12.143,12.143,0,0,1,4.6,3.472,15.931,15.931,0,0,1,2.831,5.435,23.943,23.943,0,0,1,.981,7.1q0,.981-.038,1.925a9.292,9.292,0,0,1-.189,1.623H761.19a14.325,14.325,0,0,0,3.661,9.322,11.315,11.315,0,0,0,8.567,3.435,14.423,14.423,0,0,0,4.869-.793,21.544,21.544,0,0,0,4.265-2.076l2.189,4.076a31.251,31.251,0,0,1-5.359,2.642A18.62,18.62,0,0,1,772.663-20.465ZM761.114-42.657H780.74q0-5.586-2.378-8.492a8.147,8.147,0,0,0-6.68-2.906,9.444,9.444,0,0,0-3.736.755,9.831,9.831,0,0,0-3.208,2.227,12.2,12.2,0,0,0-2.378,3.585A16.188,16.188,0,0,0,761.114-42.657ZM802.63-20.465a11.107,11.107,0,0,1-7.662-2.717q-3.057-2.717-3.057-7.7a10.186,10.186,0,0,1,5.359-9.247q5.359-3.208,17.134-4.491a16.9,16.9,0,0,0-.34-3.4,8.5,8.5,0,0,0-1.17-2.944,6.148,6.148,0,0,0-2.3-2.076,7.83,7.83,0,0,0-3.736-.793,14.862,14.862,0,0,0-5.963,1.208,29.082,29.082,0,0,0-4.982,2.717l-2.415-4.3a40.059,40.059,0,0,1,6.265-3.208,20.919,20.919,0,0,1,8.152-1.547q6.718,0,9.737,4.114t3.019,10.983v22.494h-5.133l-.528-4.378h-.226a31.045,31.045,0,0,1-5.661,3.736A14.031,14.031,0,0,1,802.63-20.465Zm1.811-4.982a10.449,10.449,0,0,0,4.982-1.246,24.967,24.967,0,0,0,4.982-3.661v-10.19a62.618,62.618,0,0,0-7.737,1.434,20.4,20.4,0,0,0-5.057,1.963,7.606,7.606,0,0,0-2.793,2.6,6.2,6.2,0,0,0-.868,3.208q0,3.17,1.887,4.529A7.67,7.67,0,0,0,804.441-25.447Zm27.778,4.076V-58.055h5.133l.529,6.642h.227a16.95,16.95,0,0,1,4.567-5.51,9.458,9.458,0,0,1,5.85-2.038,9.753,9.753,0,0,1,3.925.755l-1.208,5.435a13.951,13.951,0,0,0-1.661-.453,9.856,9.856,0,0,0-1.887-.151,8.218,8.218,0,0,0-4.868,1.887q-2.529,1.887-4.416,6.567v23.551Zm39.93.906a17.933,17.933,0,0,1-6.793-1.283,15.264,15.264,0,0,1-5.473-3.736,17.575,17.575,0,0,1-3.623-6.039,23.366,23.366,0,0,1-1.321-8.114,21.921,21.921,0,0,1,1.434-8.19,18.448,18.448,0,0,1,3.85-6.076,16.055,16.055,0,0,1,5.623-3.774,18.021,18.021,0,0,1,6.755-1.283,13.718,13.718,0,0,1,6.19,1.283,20.883,20.883,0,0,1,4.529,3.019l-3.171,4.076a15.533,15.533,0,0,0-3.359-2.34,8.587,8.587,0,0,0-3.963-.906,10.462,10.462,0,0,0-4.6,1.019A10.357,10.357,0,0,0,864.6-49.9a14.4,14.4,0,0,0-2.378,4.491,18.185,18.185,0,0,0-.868,5.774,18.578,18.578,0,0,0,.83,5.737,13.866,13.866,0,0,0,2.3,4.416,10.172,10.172,0,0,0,3.585,2.868,10.46,10.46,0,0,0,4.6,1.019,10.251,10.251,0,0,0,4.718-1.095,19.076,19.076,0,0,0,3.887-2.6L884-25.145a19.645,19.645,0,0,1-5.51,3.434A16.467,16.467,0,0,1,872.149-20.465Zm19.927-.906V-75.114h6.189v14.644l-.226,7.548a34.5,34.5,0,0,1,5.51-4.265,12.512,12.512,0,0,1,6.718-1.774q5.812,0,8.492,3.623t2.68,10.718v23.249h-6.19V-43.789q0-5.208-1.661-7.511T908.3-53.6a9.018,9.018,0,0,0-5.057,1.434,32.815,32.815,0,0,0-4.982,4.227v26.57Z" transform="translate(384.682 577.534)"/></g></svg>