<svg xmlns="http://www.w3.org/2000/svg" width="804.075" height="1053" viewBox="0 0 804.075 1053"><defs><style>.a{fill:#396ff7;}.b{fill:#1a49d1;}.c{fill:#bcccff;}.d{fill:#2345d1;}.e{fill:#406cf7;}</style></defs><g transform="translate(-5593.2 -11438)"><g transform="translate(5752.75 11438)"><path class="a" d="M0,39.936,121.354-23.135v152.67L0,192.606Z" transform="translate(361.365 387.197)"/><path class="b" d="M121.354,39.936,0-23.135v152.67l121.354,63.071Z" transform="translate(240.012 387.197)"/><path class="c" d="M0,59.81,119.62,0,239.24,59.81,119.62,119.62Z" transform="translate(243.48 284.317)"/><path class="a" d="M0,39.936,121.354-23.135v152.67L0,192.606Z" transform="translate(121.356 388.546)"/><path class="b" d="M121.354,39.936,0-23.135v152.67l121.354,63.071Z" transform="translate(0 388.546)"/><path class="c" d="M0,63.374,121.354,0,242.709,63.374,121.354,126.747Z" transform="translate(0 302.037)"/><path class="a" d="M0,39.936,121.354-23.135v152.67L0,192.606Z" transform="translate(121.356 237.527)"/><path class="b" d="M121.354,39.936,0-23.135v152.67l121.354,63.071Z" transform="translate(0 237.527)"/><path class="c" d="M0,63.374,121.354,0,242.709,63.374,121.354,126.747Z" transform="translate(0 151.017)"/><path class="a" d="M0,39.936,121.354-23.135v152.67L0,192.606Z" transform="translate(361.365 237.527)"/><path class="b" d="M121.354,39.936,0-23.135v152.67l121.354,63.071Z" transform="translate(240.012 237.527)"/><path class="c" d="M0,63.374,121.354,0,242.709,63.374,121.354,126.747Z" transform="translate(240.012 151.017)"/><path class="a" d="M0,39.936,121.354-23.135v152.67L0,192.606Z" transform="translate(361.365 86.509)"/><path class="b" d="M121.354,39.936,0-23.135v152.67l121.354,63.071Z" transform="translate(240.012 86.509)"/><path class="c" d="M0,63.374,121.354,0,242.709,63.374,121.354,126.747Z" transform="translate(240.012)"/><path class="a" d="M0,39.936,121.354-23.135v152.67L0,192.606Z" transform="translate(240.012 450.572)"/><path class="b" d="M121.354,39.936,0-23.135v152.67l121.354,63.071Z" transform="translate(118.657 450.572)"/><path class="c" d="M0,63.374,121.354,0,242.709,63.374,121.354,126.747Z" transform="translate(118.657 364.062)"/></g><path class="d" d="M-396.6,40V180h26.4V121.8h52.8V180H-291V40h-26.4V97.8h-52.8V40Zm122.4,90.4c0,31.6,20.6,52.4,50.2,52.4,27.2,0,39-15.4,44.6-26L-200,146c-3.4,7.6-9.2,15.2-23.2,15.2s-24.6-9.8-25.2-23.4h72.2v-8.6c0-30.4-19-51.2-48.2-51.2S-274.2,98.8-274.2,130.4Zm26-11.4c1.6-11,10-19.4,23.6-19.4,13,0,21.6,8,22.8,19.4Zm86.4-13,23.2,7.8c1.8-9,7.8-15.8,20.4-15.8,12.8,0,18.4,7.2,18.4,16.4V120H-127c-22.4,0-38.4,10.6-38.4,31s16,31.8,36.4,31.8c18.4,0,25-10,26.8-14.4h2.8V180h24V116.2c0-24.8-16.4-38.2-42.4-38.2C-143.6,78-157,91-161.8,106Zm21.6,44.4c0-6.8,5.6-11.6,15-11.6h25.4v1.6c0,13.2-10,22-24,22C-134.6,162.4-140.2,157.4-140.2,150.4Zm73.6-49.2h24.8v56.4c0,13.6,8.8,22.4,22,22.4h28V159.6H-11c-3.6,0-5.6-2-5.6-6V101.2H10.6V80.8H-16.6V50H-41.8V80.8H-66.6Zm94-20.4V180H52.6V120.8c0-13.6,6.4-21.2,18-21.2,10,0,16,5.6,16,16.4v64h25.2V120.8c0-13.6,6.4-21.2,18-21.2,10,0,16,5.6,16,16.4v64H171V114.8c0-24-14.8-35.6-33.2-35.6-16.2,0-23.6,7.2-28.4,15.6h-2c-4.6-9.4-12.8-15.6-27.2-15.6s-22.2,6.4-26,14h-2V80.8ZM191,106l23.2,7.8c1.8-9,7.8-15.8,20.4-15.8,12.8,0,18.4,7.2,18.4,16.4V120H225.8c-22.4,0-38.4,10.6-38.4,31s16,31.8,36.4,31.8c18.4,0,25-10,26.8-14.4h2.8V180h24V116.2C277.4,91.4,261,78,235,78,209.2,78,195.8,91,191,106Zm21.6,44.4c0-6.8,5.6-11.6,15-11.6H253v1.6c0,13.2-10,22-24,22C218.2,162.4,212.6,157.4,212.6,150.4Zm86,69.6h25.2V167.2h2c5.6,8,15.2,15.6,32.4,15.6,23.6,0,44.8-20,44.8-52.4S381.8,78,358.2,78c-17.2,0-26.8,7.6-32.8,16.2h-2V80.8H298.6Zm52-58.8c-15.6,0-27.2-11.2-27.2-30.8S335,99.6,350.6,99.6s27.2,11.2,27.2,30.8S366.2,161.2,350.6,161.2Z" transform="translate(5994 12271)"/><path class="e" d="M-400.8-52.5V0h6.075V-23.55h24.9V0h6.075V-52.5h-6.075v23.4h-24.9V-52.5Zm55.575,0V0h6.075V-52.5ZM-322.2-20.7c0,13.8,7.8,21.75,20.7,21.75,12.075,0,19.35-7.125,19.35-19.05v-6.825h-21.825v5.25h15.75v2.025c0,8.25-4.2,13.125-13.275,13.125-9.15,0-14.625-6-14.625-16.2v-11.25c0-10.2,5.475-16.275,14.7-16.275,8.625,0,12.825,5.175,12.825,13.05v.675h6.15v-.6c0-11.25-6.45-18.525-19.05-18.525-12.675,0-20.7,7.95-20.7,21.825Zm57-31.8V0h6.075V-23.55h24.9V0h6.075V-52.5h-6.075v23.4h-24.9V-52.5Zm86.25,0V0h6.075V-21.225H-159c9.3,0,16.5-5.925,16.5-15.675s-7.125-15.6-16.5-15.6Zm6.075,5.475h13.2c6.9,0,11.025,3.825,11.025,10.125,0,6.375-4.125,10.125-11.025,10.125h-13.2ZM-127.5-52.5V0h33.3V-5.475h-27.225v-18.15h24.75V-29.1h-24.75V-47.025h26.85V-52.5Zm87.375,15.375c0-9.6-7.125-15.375-16.5-15.375h-21.45V0H-72V-21.75h12.3L-48.375,0h7.05l-12-21.975C-45.675-23.25-40.125-28.725-40.125-37.125ZM-72-47.025h14.7c6.9,0,11.025,3.675,11.025,9.9s-4.125,9.9-11.025,9.9H-72ZM-24.45-52.5V0h6.075V-23.55h24.6V-29.1h-24.6V-47.025h26.1V-52.5ZM21.375-32.25v12c0,13.875,8.025,21.3,20.55,21.3s20.55-7.425,20.55-21.3v-12c0-13.875-8.025-21.3-20.55-21.3S21.375-46.125,21.375-32.25Zm6.075-.3c0-9.675,5.325-15.6,14.475-15.6,9.075,0,14.4,5.925,14.4,15.6v12.6c0,9.675-5.325,15.525-14.4,15.525-9.15,0-14.475-5.85-14.475-15.525Zm89.925-4.575c0-9.6-7.125-15.375-16.5-15.375H79.425V0H85.5V-21.75H97.8L109.125,0h7.05l-12-21.975C111.825-23.25,117.375-28.725,117.375-37.125ZM85.5-47.025h14.7c6.9,0,11.025,3.675,11.025,9.9s-4.125,9.9-11.025,9.9H85.5ZM133.05-52.5V0h6V-46.05h.75L155.775,0h8.7L180.45-46.05h.75V0h6V-52.5H176.55L160.5-6.225h-.75L143.7-52.5Zm85.275,0L201.3,0h6.375l4.275-13.35H234L238.275,0h6.375L227.625-52.5ZM213.6-18.825l9-28.05h.75l9,28.05ZM258.75-52.5V0h6.075V-45.975h.75L286.125,0H296.55V-52.5h-6.075V-6.525h-.75L269.1-52.5Zm54.675,31.725c0,13.875,7.8,21.825,20.7,21.825,12.15,0,19.5-7.125,19.5-18.675v-1.5H347.55v1.575c0,7.95-4.275,13.125-13.425,13.125s-14.625-6-14.625-16.2v-11.25c0-10.2,5.4-16.275,14.625-16.275,8.7,0,13.425,5.4,13.425,13.35v1.2h6.075v-1.125c0-11.55-6.9-18.825-19.5-18.825-12.75,0-20.7,7.95-20.7,21.825ZM369.975-52.5V0h33.3V-5.475H376.05v-18.15H400.8V-29.1H376.05V-47.025H402.9V-52.5Z" transform="translate(5994 12271)"/></g></svg>